<svg xmlns="http://www.w3.org/2000/svg" xmlns:xlink="http://www.w3.org/1999/xlink" width="420.796" height="524.28" viewBox="0 0 420.796 524.28"><defs><linearGradient id="c" x1="50%" x2="50%" y1="0%" y2="100%"><stop offset="0%" stop-color="#90F7EC"/><stop offset="100%" stop-color="#32CCBC"/></linearGradient><filter id="b" width="111.6%" height="107.7%" x="-5.1%" y="-3%" filterUnits="objectBoundingBox"><feOffset dx="2" dy="4" in="SourceAlpha" result="shadowOffsetOuter1"/><feGaussianBlur in="shadowOffsetOuter1" result="shadowBlurOuter1" stdDeviation="5"/><feColorMatrix in="shadowBlurOuter1" values="0 0 0 0 0 0 0 0 0 0 0 0 0 0 0 0 0 0 0.201545769 0"/></filter><path id="a" d="M256.198345,85.2957023 L256.198345,293.796395 C233.275462,280.627931 204.987649,275.506861 174.992812,285.992861 C142.315511,297.698163 117.197883,326.717558 111.345232,360.858022 C105.855241,392.028428 115.802551,423.927325 138.036817,446.452236 C160.271083,468.977146 192.038111,479.33787 223.277183,474.253136 C271.073834,466.693461 304.970437,422.798579 304.970437,374.270347 L304.970437,182.839886 C304.970437,155.903804 326.806447,134.067794 353.742529,134.067794 L353.742529,134.067794 L353.742529,134.067794 C380.56718,134.067794 402.514621,112.120353 402.514621,85.2957023 C402.514621,58.4710517 380.56718,36.5236104 353.742529,36.5236104 L304.970437,36.5236104 C278.145787,36.5236104 256.198345,58.4710517 256.198345,85.2957023 Z"/></defs><g fill="none" transform="rotate(15 226.255 79.58)"><use xlink:href="#a" fill="#000" filter="url(#b)"/><use xlink:href="#a" fill="url(#c)"/></g></svg>